<svg xmlns="http://www.w3.org/2000/svg" viewBox="0 0 120 120" width="512" height="512" fill="none">
  <defs>
    <!-- Drop Shadow for Depth -->
    <filter id="logoShadow" x="-20%" y="-20%" width="140%" height="140%">
      <feDropShadow dx="0" dy="4" stdDeviation="3" flood-color="#0F172A" flood-opacity="0.15" />
    </filter>
  </defs>

  <!-- Background Squircle -->
  <rect width="120" height="120" rx="28" fill="#5D5CFF" />
  
  <!-- Main Visual Group with Shadow -->
  <g filter="url(#logoShadow)">
    <!-- House Roof -->
    <path d="M12 46 L60 12 L108 46" stroke="#FFFFFF" stroke-width="8" stroke-linecap="round" stroke-linejoin="round" fill="none" />
    
    <!-- Card/Wallet Outline -->
    <rect x="18" y="47" width="84" height="58" rx="14" stroke="#FFFFFF" stroke-width="7" fill="none" />
    
    <!-- Divider Line -->
    <path d="M18 58 L102 58" stroke="#FFFFFF" stroke-width="7" stroke-linecap="round" />
    
    <!-- Heart Outline -->
    <path d="M60 95 C54 89 44 81 44 73 C44 68 48 64 53 64 C56.5 64 58.5 66 60 67 C61.5 66 63.5 64 67 64 C72 64 76 68 76 73 C76 81 66 89 60 95 Z" stroke="#FFFFFF" stroke-width="7" stroke-linecap="round" stroke-linejoin="round" fill="none" />
  </g>
</svg>
