<?xml version="1.0"?><svg xmlns="http://www.w3.org/2000/svg" xmlns:xlink="http://www.w3.org/1999/xlink" width="1024" height="1024" viewBox="0 0 1024 1024"><path fill="#292689" d="M0 0L211.178 0L813.231 0L1024 0L1024 211.265L1024 812.893L1024 1024L811.294 1024L210.814 1024L0 1024L0 811.249L0 215.54L0 0Z"></path><path fill="#FCFCFD" d="M0 0L211.178 0C205.346 0.95097 199.387 1.21355 193.545 1.99224C131.851 10.2153 75.2681 45.4783 39.8956 96.494C17.5636 128.702 3.70981 166.279 1.10144 205.31C0.875655 208.689 0.566218 212.199 0 215.54L0 0Z"></path><path fill="#FCFCFD" d="M1024 812.893L1024 1024L811.294 1024C814.582 1023.18 818.804 1023.08 822.297 1022.69C828.966 1021.94 835.447 1021.25 842.061 1020.06C874.811 1013.87 905.736 1000.35 932.525 980.516C971.153 952.039 1002.23 909.548 1014.99 863.07C1018.12 851.781 1020.52 840.3 1022.16 828.699C1022.91 823.449 1023.27 817.756 1024 812.893Z"></path><path fill="#FCFCFD" d="M813.231 0L1024 0L1024 211.265C1023 207.157 1023.15 202.497 1022.65 198.247C1011.88 105.72 944.868 29.0628 853.616 6.45614C845.496 4.46643 837.27 2.94132 828.976 1.88825C823.733 1.2367 818.406 1.11508 813.231 0Z"></path><path fill="#FCFCFD" d="M0 811.249L0.117882 811.913C2.4699 825.511 1.98168 835.23 5.49095 850.421C16.216 896.761 41.4466 938.471 77.5123 969.483C106.963 994.712 141.91 1012.39 180.111 1019.69C185.096 1020.66 190.119 1021.42 195.167 1021.97C198.93 1022.39 207.811 1022.89 210.814 1024L0 1024L0 811.249Z"></path><path fill="#4B47A8" d="M227.758 7.2182C228.171 7.19377 228.585 7.17863 228.999 7.1728C242.331 7.00085 256.362 7.32711 269.801 7.34711L350.748 7.26406L631.522 7.21181L738.367 7.35616C774.332 7.26683 811.358 5.02747 846.601 12.8174C944.918 34.5488 1016.27 124.455 1016.43 225C1016.5 268.285 1016.49 311.69 1016.52 355.019L1016.56 619.778L1016.48 739.082C1016.47 773.363 1018.3 813.812 1011.03 846.783C1003.08 882.852 982.239 922.827 956.166 948.983C909.572 995.726 858.991 1015.43 794.31 1016.54L381.562 1016.57L275.797 1016.54C247.747 1016.55 210.469 1017.65 183.524 1012.31C144.705 1004.9 108.707 986.857 79.5464 960.185C34.2939 919.075 9.52772 864.292 7.49462 803.463C6.84768 784.107 7.35447 764.574 7.37274 745.216L7.2661 647.145L7.1846 397.009L7.27757 267.953C7.50715 237.78 6.03285 212.025 11.9751 182.1C20.0359 143.142 38.5016 107.096 65.4096 77.7931C99.4582 40.8394 145.214 16.7652 194.954 9.63408C205.525 8.09519 217.041 7.67488 227.758 7.2182Z"></path><path fill="#3B38AE" d="M8.56185 465.11C9.41969 447.507 8.61052 423.316 8.61625 405.254L8.44754 276.499L8.38724 239.287C8.38035 231.411 8.22283 223.123 8.72119 215.316C12.5392 155.506 38.4302 100.828 84.0059 61.512C115.546 34.3038 150.814 18.3608 191.843 11.4365C210.751 8.2454 228.709 8.53151 247.827 8.59557L291.88 8.65168L447.675 8.92549L683.125 8.70334L757.951 8.71531C775.664 8.62065 794.279 8.08887 811.877 9.12092C867.959 12.4099 924.555 39.7713 961.367 82.6381C992.993 119.166 1011.81 165.032 1014.95 213.246C1015.85 225.292 1015.42 238.715 1015.39 250.897L1015.38 303.498C1015.44 318.89 1015.4 334.282 1015.27 349.673C1015.19 355.289 1014.66 361.157 1014.64 366.56L1014.6 393.012C1014.6 397.367 1014.86 402.052 1014.54 406.344C1014.88 409.835 1015.28 423.754 1013.6 426.058L1012.1 426.474C1011.93 428.045 1011.93 427.429 1012.49 429.038L1011.99 429.45L1010.23 429.007C1009.17 429.884 1009.55 429.343 1009.3 430.8C1009.94 431.988 1010.5 432.14 1011.67 432.85C1011.6 434.204 1011.5 433.89 1010.68 435.248C1010.65 437.946 1012.38 439.395 1014.31 441.02C1014.98 449.23 1014.69 458.538 1014.7 466.872L1014.51 517.486C1014.67 535.241 1014.71 552.996 1014.63 570.751C1014.62 577.917 1015.04 589.82 1014.41 596.417C1014.77 599.849 1014.58 609.076 1014.61 612.957L1014.6 655.304L1015.38 790.092C1015.42 805.376 1014.46 820.154 1012.05 835.203C995.636 937.573 902.464 1016.32 798.693 1015.12C781.316 1014.92 763.469 1015.13 745.97 1015.11L635.548 1014.99L250.696 1015.08C232.273 1015.1 213.17 1015.58 195.022 1013.06C106.844 1000.82 33.4751 933.243 14.1228 846.34C7.94183 818.585 8.4222 796.333 8.43716 768.18L8.48971 709L8.61557 523.314C8.23805 520.79 8.36959 506.864 8.41418 503.49C8.58039 490.913 8.12933 477.614 8.56185 465.11Z"></path><path fill="#292689" d="M8.61557 523.314C9.33223 527.392 9.0173 532.143 9.13353 536.337C9.39101 545.629 9.53077 554.838 9.04647 564.129C8.92723 583.338 8.77558 602.702 9.35678 621.894C9.53414 627.75 8.72081 633.001 9.06891 639.498C9.43001 636.479 9.0132 631.672 9.61982 629.582L10.0916 629.603C10.8223 630.971 15.4939 654.793 15.3998 655.148C13.1257 657.361 13.9977 658.873 13.6533 662.681C13.0493 669.361 18.4736 669.68 16.7319 676.431C17.9329 677.887 18.0816 677.909 19.5743 678.959C20.8509 683.149 17.9073 681.795 22.979 684.409C31.9001 689.006 29.3267 702.772 32.2969 710.918C32.9963 712.836 35.6967 714.969 36.5064 717.007C37.5529 718.773 38.5903 722.199 39.2219 723.063C41.0115 725.514 42.658 725.472 43.9804 729.277C45.0737 732.423 44.357 737.504 46.7483 739.499C47.9151 739.362 47.3275 739.521 48.4954 738.967C49.8103 740.189 50.0317 740.635 50.0851 742.517L50.1004 743.298C50.2556 748.866 57.3831 747.649 58.4754 754.039C58.6999 755.352 60.5234 764.156 62.0565 763.696C62.3629 763.653 62.6693 763.609 62.9757 763.566C66.1438 770.379 74.4705 783.491 78.8631 790.393C79.525 791.433 86.777 795.786 87.8569 797.051C90.2523 799.858 91.0519 802.747 93.9181 805.328C94.7577 804.137 93.8774 802.577 95.1015 800.983C95.1502 801.01 102.133 811.126 102.171 811.451C101.41 811.596 100.796 811.702 100.02 811.82C101.987 815.634 103.793 814.21 104.926 819.585C106.216 825.709 108.597 831.636 113.764 835.387C117.369 838.567 122.34 841.767 125.464 844.638C127.252 846.28 129.41 851.18 132.246 853.805L133.277 852.978C134.771 854.617 132.725 854.09 133.827 854.774C137.901 857.301 142.918 858.801 146.773 861.927C147.231 862.298 147.648 864.749 147.768 865.376C148.879 866.607 149.914 866.672 151.539 867.093L152.274 868.045L151.544 870.137L155.992 872.279C155.803 874.031 155.592 874.884 155.166 876.607C158.365 877.536 157.231 875.703 159.225 877.935L159.358 878.63C159.675 880.233 159.673 881.224 160.728 882.419C161.88 883.096 162.12 882.883 163.516 882.753L164.16 883.224C164.469 885.62 164.032 885.407 165.395 886.649C165.834 886.658 169.565 886.443 169.258 886.295C173.498 888.344 182.279 894.376 185.78 897.12C188.907 904.37 189.591 899.526 193.117 902.685L193.192 903.109C193.892 906.955 198.259 916.371 201.6 918.657C206.614 922.086 213.361 923.733 217.132 929.381C220.46 934.647 228.68 935.879 231.825 940.531C237.984 949.643 244.158 947.9 252.638 953.275C254.099 952.551 254.234 952.166 255.263 950.9C259.885 954.791 261.538 953.191 265.873 955.684C274.685 960.753 275.698 970.338 287.46 969.17C287.853 969.13 288.245 969.085 288.637 969.033C291.885 971.52 290.974 972.703 295.504 973.712C299.226 974.541 299.896 974.135 301.502 977.497C309.549 982.573 313.304 985.497 323.019 988.176C324.382 988.551 326.792 991.151 327.551 991.649C329.986 993.244 341.087 992.358 344.037 992.103C347.383 993.594 350.547 996.526 352.741 998.689C352.596 998.547 358.157 999.134 359.668 1000.42C361.969 1002.37 368.062 1001.26 370.854 1001.97C380.726 1003.54 391.595 1009.3 401.472 1008.38C402.828 1008.25 408.057 1009.92 409.646 1010.41C418.304 1006.83 424.295 1015.25 431.98 1012.23C434.018 1014.13 430.857 1014.63 434.303 1014.6C435.891 1014.58 436.682 1014.04 437.737 1012.96L438.295 1013.02L438.338 1014.4L438.491 1013.96L438.513 1014.46L538.676 1014.5C559.629 1014.5 582.905 1014.99 603.641 1014.36L603.177 1013.33C604.444 1012.29 606.226 1011.79 607.798 1011.27L608.533 1012.13C612.317 1011.68 622.056 1007.33 626.556 1006.6C628.488 1006.29 631.011 1007.07 632.961 1007.23C632.961 1007.23 634.832 1005.88 634.832 1005.88C638.941 1005.6 643.063 1005.16 647.128 1004.47C648.51 1004.24 651.326 1001.47 652.409 1001.4C655.489 1001.22 659.741 1001.88 662.715 1000.91C666.8 999.58 667.247 995.521 671.749 995.654C675.07 995.752 683.838 993.486 686.266 991.126C687.005 990.408 687.614 989.03 688.911 989.083C690.107 989.131 691.187 989.24 692.349 989.368C693.591 988.766 693.768 988.231 694.564 987.074C697.865 985.859 706.907 987.218 710.874 985.104C717.71 981.462 725.908 969.565 734.435 970.264C742.774 962.421 744.921 965.523 754.205 960.139C755.502 959.386 757.969 956.527 759.667 955.312C763.999 952.212 768.067 950.178 772.208 946.715C775.423 944.025 774.194 942.796 776.877 941.501C777.932 941.797 778.509 941.979 779.527 942.381C780.706 941.831 781.003 940.737 781.609 939.5L782.354 939.207C783.308 940.023 783.229 940.081 783.753 941.251L784.234 941.253C785.539 939.437 786.271 937.646 788.015 937.141L789.649 937.662C790.907 936.782 796.02 932.965 796.046 932.831C797.265 926.451 800.15 926.018 806.28 925.715C807.336 925.663 809.875 920.603 811.291 920.522C811.722 920.417 815.326 920.445 815.575 920.322C817.563 919.34 815.765 916.936 818.04 915.916C826.152 912.28 828.317 911.321 832.731 903.594C833.708 901.884 840.72 900.4 842.288 896.261C841.137 894.725 840.214 894.074 840.235 892.439C844.923 888.747 841.646 890.278 844.164 885.323C844.164 885.323 847.038 884.488 847.038 884.488C848.761 882.349 850.433 879.803 852.425 877.946C853.823 876.642 856.032 875.663 857.531 874.605C857.811 874.407 858.766 872.059 858.911 871.573C859.291 870.3 859.964 869.515 860.828 868.517C863.483 865.451 861.624 865.77 865.182 864.635C864.549 862.11 863.608 863.503 863.966 861.61C865.416 860.629 867.55 859.479 868.276 858.002L867.189 856.464C867.924 855.139 868.26 855.081 869.525 854.245C871.326 853.969 871.419 854.088 873.151 854.455C874.985 853.438 874.836 852.833 875.311 850.698C877.47 848.995 880.184 848.275 881.005 846.683L880.43 846.565C880.388 845.153 880.328 845.217 880.844 843.922L881.552 843.593C882.573 844.23 882.844 844.354 883.7 845.179C885.838 842.626 882.352 835.735 891.235 834.029C894.011 833.496 900.304 826.214 903.136 823.93C905.842 820.949 908.592 811.212 912.232 809.8C916.259 808.236 917.667 808.996 920.151 804.258C923.552 797.769 931.523 792.833 935.88 786.866C936.999 785.333 932.571 783.249 938.238 779.752L939.319 779.668C939.996 781.054 939.774 780.512 939.764 782.219C941.381 779.773 939.401 776.525 940.992 776L943.063 778.293C945.156 776.856 943.462 776.802 944.591 776.105C948.416 773.744 947.263 777.759 951.158 772.289C950.973 769.266 949.986 772.54 950.082 769.256C951.485 768.051 951.694 767.999 953.281 767.166C951.618 764.211 952.034 767.851 950.832 765.013C951.826 764.356 951.855 764.533 952.406 763.489L950.45 760.914C951.269 759.311 952.795 759.003 953.088 758.537C954.252 756.681 954.216 753.443 955.816 751.884L957.843 751.818C958.278 750.284 959.178 745.573 960.457 745.059C967.44 742.25 970.186 740.743 972.382 733.222C973.841 728.228 975.253 723.153 977.669 718.462C978.562 716.727 977.684 712.098 979.22 709.686C980.676 709.015 980.576 709.214 981.723 708.17C984.336 698.577 988.603 690.506 991.665 681.172C992.325 679.158 990.528 671.756 991.217 669.324C996.414 665.726 996.343 658.1 999.831 652.906C999.831 652.906 999.378 650.718 999.378 650.718C1003.04 648.056 999.173 645.773 998.839 642.434C998.752 641.566 1000.56 639.771 1001.05 639.084C1001.82 634.051 1001.1 631.203 1003.33 626.462C1002.77 623.624 1001.25 623.018 1002.38 621.145C1004.23 618.014 1006.82 615.747 1007.52 612.091C1007.98 609.7 1006.98 601.558 1009.04 600.285C1011.94 598.494 1010.75 595.555 1010.57 592.693L1012.2 592.509L1013.34 590.886C1013.81 591.599 1013.99 594.91 1014.41 596.417C1014.77 599.849 1014.58 609.076 1014.61 612.957L1014.6 655.304L1015.38 790.092C1015.42 805.376 1014.46 820.154 1012.05 835.203C995.636 937.573 902.464 1016.32 798.693 1015.12C781.316 1014.92 763.469 1015.13 745.97 1015.11L635.548 1014.99L250.696 1015.08C232.273 1015.1 213.17 1015.58 195.022 1013.06C106.844 1000.82 33.4751 933.243 14.1228 846.34C7.94183 818.585 8.4222 796.333 8.43716 768.18L8.48971 709L8.61557 523.314Z"></path><path fill="#292689" d="M8.56185 465.11C9.41969 447.507 8.61052 423.316 8.61625 405.254L8.44754 276.499L8.38724 239.287C8.38035 231.411 8.22283 223.123 8.72119 215.316C12.5392 155.506 38.4302 100.828 84.0059 61.512C115.546 34.3038 150.814 18.3608 191.843 11.4365C210.751 8.2454 228.709 8.53151 247.827 8.59557L291.88 8.65168L447.675 8.92549L683.125 8.70334L757.951 8.71531C775.664 8.62065 794.279 8.08887 811.877 9.12092C867.959 12.4099 924.555 39.7713 961.367 82.6381C992.993 119.166 1011.81 165.032 1014.95 213.246C1015.85 225.292 1015.42 238.715 1015.39 250.897L1015.38 303.498C1015.44 318.89 1015.4 334.282 1015.27 349.673C1015.19 355.289 1014.66 361.157 1014.64 366.56L1014.6 393.012C1014.6 397.367 1014.86 402.052 1014.54 406.344L1013.45 407.874C1010.25 407.913 1009.67 404.143 1008.85 401.468C1009.57 397.874 1009.19 397.864 1007.81 394.24C1007.73 394.028 1009.75 392.729 1009.18 392.217C1008.68 388.968 1002.57 384.679 1007.36 383.143C1007.49 381.186 1004.22 377.758 1003.62 374.381C1002.96 370.662 1003.13 368.448 1003.17 364.661C1001.19 363.805 1001.37 364.26 1000.54 362.757C1000.64 361.139 1002.04 353.267 1002.18 353.616C999.433 347.016 996.784 348.507 995.888 340.907C994.739 331.151 986.171 317.223 984.138 307.281C983.497 304.146 983.713 302.512 982.542 299.025C981.555 296.087 978.317 293.287 978.492 291.486L979.754 290.183L979.301 289.336C977.879 286.646 977.377 286.045 977.519 282.976C977.605 281.125 977.535 280.624 976.56 279.437L974.321 279.111C973.218 277.299 975.544 274.239 974.598 272.137C972.864 268.283 969.153 265.808 967.372 261.866C965.758 258.295 963.446 259.146 964.632 254.797C958.69 247.873 957.278 248.102 953.51 238.629C951.841 235.395 943.796 227.531 943.017 224.496C941.228 217.533 940.702 214.389 933.825 210.026C930.022 207.613 921.052 190.768 919.832 190.224C918.862 191.012 918.648 191.875 918.158 193.039C917.291 192.161 916.772 191.293 916.146 190.243C912.648 184.378 908.307 189.665 902.767 178.917C901.746 178.712 901.584 178.683 900.513 178.587L899.979 177.711C900.305 176.652 900.611 175.702 900.983 174.658L900.599 173.878C899.416 173.484 898.514 173.201 897.294 172.878L896.857 172.124C897.34 170.439 898.113 169.768 899.247 168.438L898.79 167.787C895.88 167.448 894.977 168.287 893.285 167.03C892.757 164.844 893.031 162.529 891.848 160.827C890.284 159.729 890.167 159.86 888.304 159.718C885.698 160.901 885.575 161.983 883.636 161.944C881.651 159.403 880.151 156.325 878.527 153.5C878.329 153.154 876.248 152.771 875.686 152.69C872.738 149.717 872.345 145.899 870.408 145.338L868.863 146.329L868.225 145.885L868.196 145.084C868.158 144.222 868.122 143.784 868.011 142.951L867.433 142.741C863.726 141.356 859.202 137.45 858.238 133.567L859.118 132.602C856.799 128.404 854.654 124.113 852.766 119.644C852.396 119.228 850.839 118.423 850.377 118.428C846.439 118.475 842.921 112.02 840.956 111.289C832.547 108.162 829.79 106.514 825.298 98.5652C825.005 98.0476 821.426 97.622 819.953 96.5385C819.594 95.3712 819.665 95.2447 819.673 94.0021C815.765 91.0507 813.794 94.5633 811.29 86.1258C810.889 84.7736 808.379 86.0765 806.744 84.556C806.61 82.2929 806.989 82.732 805.788 81.3652C798.996 78.9066 791.531 83.7163 788.649 78.1586C787.954 76.8196 788.218 75.6333 786.683 74.5355C785.124 74.2744 782.235 74.0089 781.423 72.8871C777.458 67.4134 773.505 57.4326 765.965 56.4255C758.339 55.4071 753.223 55.0583 747.436 49.5009C743.527 45.7477 742.109 42.2488 737.022 43.522C736.912 43.5498 732.247 40.2793 731.546 39.7586C731.209 39.7662 727.901 39.8404 727.901 39.8404C724.464 38.4887 719.869 34.1843 716.203 34.8664C713.375 35.3928 706.18 27.3315 704.231 28.9666L703.987 29.9355C699.77 31.6349 696.186 28.3874 693.541 25.754C691.85 25.8482 690.362 25.9903 688.67 25.8325C681.111 18.8364 671.155 28.6155 662.307 21.3759C658.213 18.0258 657.306 21.1453 655.955 14.0471C651.633 7.85907 644.367 15.8544 638.477 15.3687C635.241 15.1018 628.625 11.605 626.011 12.5108L625.308 11.7994C625.67 11.1258 625.986 10.4488 626.271 9.73897C617.117 9.00195 600.816 9.4862 591.188 9.48431L524.927 9.49022L440.94 9.52917C426.456 9.52224 411.851 9.40765 397.358 9.5488C395.373 9.56814 393.346 10.6338 391.664 11.3654C389.729 12.2068 383.254 10.9357 381.213 10.2761L380.459 10.04C379.651 10.9676 379.701 11.0853 379.264 12.2612C376.555 12.634 374.274 11.3688 373.151 11.9138C366.385 15.1956 357.773 13.0164 350.535 13.2817C348.889 13.342 344.349 16.4172 342.794 17.4521C341.592 17.1878 340.391 16.9235 339.19 16.6591C338.058 17.616 337.612 19.0857 335.884 19.3214C329.793 20.152 320.288 21.3158 314.867 23.8778C310.401 25.9882 306.081 29.0445 301.437 30.4177C300.189 30.7868 293.136 32.428 292.78 32.678C288.764 35.4971 284.175 40.6485 278.584 39.2838C275.502 40.1444 272.926 43.7973 270.612 44.4677L269.865 43.8195C264.667 44.7357 267.107 48.016 264.239 50.2238C262.588 50.3246 262.246 50.2531 260.648 50.0614C255.872 52.3586 255.647 54.4496 250.507 54.6699C248.432 54.7589 239.514 67.0688 237.182 68.4481C236.361 69.179 236.675 71.4229 234.946 72.0813C229.073 74.3172 223.075 76.3672 217.701 79.6914C212.416 82.7745 206.791 92.521 201.305 93.5661C198.955 94.0137 199.286 93.5488 197.71 95.0115C197.331 97.5965 197.776 98.1444 196.536 100.034C194.387 100.334 194.1 98.4199 192.278 99.0713C188.332 100.482 189.281 105.206 185.669 103.289C183.847 106.052 187.563 107.956 181.199 107.891C176.95 114.927 183.206 113.978 172.974 116.987C165.895 119.07 155.769 128.974 149.024 132.782C141.194 140.064 131.792 145.935 128.993 156.107C128.682 157.238 123.078 161.981 122.212 163.343C119.808 166.48 119.186 174.365 114.455 175.673C113.247 175.056 112.579 174.665 111.436 173.931C107.958 174.867 110.869 177.038 108.998 179.476L108.244 179.55C106.707 178.186 107.049 178.004 105.483 178.004C97.9516 183.864 97.0532 205.952 86.9162 203.262C84.7324 207.66 82.4762 210.677 79.5501 214.535C78.7673 215.567 78.4841 218.995 77.3112 220.221C71.0372 226.777 66.1716 229.228 67.1079 239.415C67.2658 241.133 64.7515 241.173 64.207 242.255C63.5246 243.255 62.9386 248.152 62.5214 248.49C55.5978 254.099 51.3367 250.741 49.5465 261.553C49.388 262.511 48.5219 268.827 48.1618 269.959C47.2001 272.981 43.4064 284.166 40.664 285.12L39.705 284.805C38.739 286.644 39.5544 285.848 39.6159 287.459C39.6729 288.646 35.1189 297.408 35.1672 297.68C37.0446 303.446 33.273 303.702 32.9955 304.371C29.3638 313.13 26.0289 322.379 21.2265 330.623C18.5921 335.145 15.7751 336.036 16.9114 340.72C17.1546 341.723 11.4124 347.048 12.6743 349.643C12.7403 350.38 12.3838 350.963 12.0052 351.55C11.4126 351.632 10.8199 351.714 10.2273 351.797L10.4432 352.41C10.9481 353.876 11.4236 354.63 10.9913 356.063L9.85757 356.87C8.54987 355.513 9.69015 347.859 9.09104 347.135C8.92495 353.314 9.05793 359.265 9.15395 365.483C9.58674 393.507 9.85411 421.707 9.07963 449.731C8.9376 454.87 9.89198 460.595 9.3499 465.393L8.85633 465.664L8.56185 465.11Z"></path><path fill="#FCFCFD" d="M220.336 715.825C215.527 704.978 216.93 667.517 216.926 653.845L216.913 573.912L216.897 504.744C216.898 491.986 216.598 479.025 217.272 466.308C219.089 435.928 238.055 410.042 266.643 399.529C283.231 393.429 298.217 394.977 315.474 394.995L366.599 395.012L531.102 395.015L668.042 395.031L713.112 395.011C733.184 395.008 744.562 393.487 763.426 402.141C780.861 409.228 794.115 424.263 801.273 441.423C804.295 448.581 806.155 456.175 806.782 463.919C807.787 476.416 807.184 494.451 807.138 507.318L807.14 576.199L807.133 656.067C807.143 668.97 807.726 688.615 806.806 701.104C806.279 708.8 804.489 716.356 801.506 723.469C793.319 743.016 778.965 757.096 759.366 765.063C752.551 767.819 745.335 769.45 737.998 769.894C729.49 770.381 718.643 770.084 710.004 770.084L660.795 770.072L510.109 770.096L361.268 770.092L313.117 770.081C294.677 770.074 280.572 771.612 263.148 764.328C243.58 756.147 224.902 736.67 220.336 715.825Z"></path><path fill="#BCB8D2" d="M763.426 402.141C780.861 409.228 794.115 424.263 801.273 441.423C804.295 448.581 806.155 456.175 806.782 463.919C807.787 476.416 807.184 494.451 807.138 507.318L807.14 576.199L807.133 656.067C807.143 668.97 807.726 688.615 806.806 701.104C806.279 708.8 804.489 716.356 801.506 723.469C793.319 743.016 778.965 757.096 759.366 765.063C752.551 767.819 745.335 769.45 737.998 769.894C729.49 770.381 718.643 770.084 710.004 770.084L660.795 770.072L510.109 770.096L361.268 770.092L313.117 770.081C294.677 770.074 280.572 771.612 263.148 764.328C243.58 756.147 224.902 736.67 220.336 715.825C223.005 718.167 223.751 723.651 225.429 726.314C228.858 731.756 230.296 731.93 233.187 738.066C234.645 738.982 237.191 740.836 238.766 740.693C235.196 737.372 226.768 727.836 226.61 723.523C229.971 724.435 232.471 732.631 235.726 734.882C242.787 739.823 266.601 756.087 273.907 756.513C323.202 759.387 374.446 757.943 423.807 757.909L620.501 757.611C634.159 757.609 647.982 758.308 661.656 758.395C685.438 758.503 709.221 758.258 732.995 757.659C746.706 757.428 766.249 748.767 775.515 739.378C784.822 729.948 793.25 714.65 795.364 701.5C796.995 691.36 796.728 684.927 796.927 674.656C796.756 667.877 798.928 657.759 798.05 651.314C795.379 631.707 798.34 613.435 798.813 593.932C798.986 586.795 796.183 578.448 796.686 570.575C797.197 560.326 797.906 550.087 798.576 539.836C799.517 525.447 797.521 511.391 798.73 497.042C799.249 490.874 798.776 484.615 798.838 478.476C798.975 465.115 795.393 453.515 791.823 440.867C790.749 437.033 791.604 430.537 789.529 426.787C786.959 422.169 783.356 417.918 779.918 413.916C775.515 408.789 767.934 406.711 763.426 402.141Z"></path><path fill="#6664D6" d="M548.628 531.979C550.898 531.127 562.639 531.911 566.281 531.797C592.539 530.972 618.735 530.982 645 531.276C655.004 531.388 665.235 532.319 675.356 532.432L738.204 532.97C746.421 533.064 763.979 532.107 771.169 534.545C773.92 537.662 771.937 541.044 770.657 544.523C771.739 544.975 771.778 544.897 772.963 545.097C773.861 546.697 773.335 576.864 773.015 581.175C773.852 606.965 772.796 634.791 773.118 660.787C773.282 674.059 773.61 691.345 771.755 704.181C770.842 710.495 766.483 717.733 762.117 722.345C753.467 731.483 743.786 735.806 731.136 735.947C717.037 736.105 702.852 736.02 688.735 736.007L612.933 735.983L551.483 735.977C546.753 735.979 519.966 736.511 518.441 735.227L519.559 734.582C519.085 734.458 506.542 734.647 505.318 734.731C505.83 735.099 505.602 734.834 505.829 735.647C503.117 736.522 486.328 736.101 482.493 736.103L430.017 736.114L340.597 736.129C329.649 736.135 283.092 737.594 277.016 732.935L276.323 732.947C270.52 734.24 269.269 733.26 264.069 731.03C249.312 724.7 242.43 713.206 241.977 697.339C241.312 674.069 242.004 650.714 241.884 627.363L241.872 575.568C241.804 564.682 241.429 553.767 241.564 542.863C241.638 536.979 243.84 534.248 249.89 533.816C258.925 533.17 268.096 533.369 277.161 533.342L319.468 532.937L462.751 532.108C469.367 532.117 476.207 532.452 482.788 532.271C504.861 531.665 526.546 533.183 548.628 531.979Z"></path><path fill="#6664D6" d="M548.628 531.979C550.898 531.127 562.639 531.911 566.281 531.797C592.539 530.972 618.735 530.982 645 531.276C655.004 531.388 665.235 532.319 675.356 532.432L738.204 532.97C746.421 533.064 763.979 532.107 771.169 534.545C773.92 537.662 771.937 541.044 770.657 544.523C771.739 544.975 771.778 544.897 772.963 545.097C773.861 546.697 773.335 576.864 773.015 581.175C773.852 606.965 772.796 634.791 773.118 660.787C773.282 674.059 773.61 691.345 771.755 704.181C770.842 710.495 766.483 717.733 762.117 722.345C753.467 731.483 743.786 735.806 731.136 735.947C717.037 736.105 702.852 736.02 688.735 736.007L612.933 735.983L551.483 735.977C546.753 735.979 519.966 736.511 518.441 735.227L519.559 734.582C519.86 734.484 520.414 734.317 520.646 734.167C568.084 703.395 644.613 642.195 617.305 577.421C612.871 566.905 600.08 550.219 589.426 546.115C588.874 545.903 589.239 546.078 588.464 545.377L596.618 544.94C595.597 543.271 591.774 540.159 589.994 540.487C590.655 542.37 591.885 543.702 593.866 544.14L593.554 544.552C590.246 544.476 578.601 539.411 575.155 537.802L575.818 537.807C569.86 535.182 562.673 535.357 556.202 535.234C557.088 534.487 557.475 534.024 558.251 533.154L558.168 532.355C556.305 531.65 551.216 532.257 548.628 531.979Z"></path><defs><linearGradient id="gradient_0" gradientUnits="userSpaceOnUse" x1="663.11169" y1="526.77698" x2="664.24445" y2="549.35565"><stop offset="0" stop-color="#DCD9D6"></stop><stop offset="1" stop-color="#B5B2E1"></stop></linearGradient></defs><path fill="url(#gradient_0)" d="M548.628 531.979C550.898 531.127 562.639 531.911 566.281 531.797C592.539 530.972 618.735 530.982 645 531.276C655.004 531.388 665.235 532.319 675.356 532.432L738.204 532.97C746.421 533.064 763.979 532.107 771.169 534.545C773.92 537.662 771.937 541.044 770.657 544.523C771.739 544.975 771.778 544.897 772.963 545.097C773.861 546.697 773.335 576.864 773.015 581.175C770.84 573.041 773.653 554.275 771.983 546.981C765.838 544.342 754.839 545.105 747.93 545.073L714.644 544.97C675.536 544.906 635.631 545.43 596.618 544.94C595.597 543.271 591.774 540.159 589.994 540.487C590.655 542.37 591.885 543.702 593.866 544.14L593.554 544.552C590.246 544.476 578.601 539.411 575.155 537.802L575.818 537.807C569.86 535.182 562.673 535.357 556.202 535.234C557.088 534.487 557.475 534.024 558.251 533.154L558.168 532.355C556.305 531.65 551.216 532.257 548.628 531.979Z"></path><path fill="#FCFCFD" d="M556.202 535.234C562.673 535.357 569.86 535.182 575.818 537.807L575.155 537.802C578.601 539.411 590.246 544.476 593.554 544.552L593.866 544.14C591.885 543.702 590.655 542.37 589.994 540.487C591.774 540.159 595.597 543.271 596.618 544.94L588.464 545.377C589.239 546.078 588.874 545.903 589.426 546.115C600.08 550.219 612.871 566.905 617.305 577.421C644.613 642.195 568.084 703.395 520.646 734.167C520.414 734.317 519.86 734.484 519.559 734.582C519.085 734.458 506.542 734.647 505.318 734.731C497.492 731.865 470.49 710.843 462.958 705.132C442.548 688.896 411.317 654.655 405.218 629.352C400.38 617.326 400.08 599.818 403.306 587.369C408.12 568.795 418.95 555.194 435.303 545.522C432.55 545.18 429.781 545.071 427.009 544.913L426.829 544.096L429.312 543.714L429.659 543.158L427.863 542.839C429.675 539.88 435.27 539.051 438.609 538.172C451.909 534.674 466.497 534.421 479.783 538.399L480.284 538.915C478.42 539.246 477.998 538.988 476.213 538.451L475.94 538.748C479.389 545.006 486.699 542.185 489.872 544.442C487.823 544.631 486.657 544.565 484.583 544.478C485.269 545.495 486.96 546.44 488.102 547.133C495.191 551.438 501.073 556.01 507.014 561.832L508.093 561.675L512.02 565.437C516.224 560.556 520.345 555.777 525.537 551.897C528.669 549.555 531.9 547.848 534.96 545.328L533.976 544.925L533.943 543.999C533.835 541.272 534.439 540.725 535.87 538.39C539.371 537.455 552.474 535.532 556.202 535.234Z"></path><path fill="#BCB8D2" d="M589.426 546.115C600.08 550.219 612.871 566.905 617.305 577.421C644.613 642.195 568.084 703.395 520.646 734.167C520.414 734.317 519.86 734.484 519.559 734.582C519.085 734.458 506.542 734.647 505.318 734.731C497.492 731.865 470.49 710.843 462.958 705.132C442.548 688.896 411.317 654.655 405.218 629.352C407.794 631.972 410.546 641.275 412.876 645.302C417.607 653.474 422.606 661.473 428.615 668.798C430.498 671.094 433.754 670.942 435.71 673.771C441.503 682.156 441.919 681.324 450.901 684.839C453.632 686.687 459.669 692.423 462.642 694.973C474.232 704.911 484.869 713.669 499.343 719.244C502.201 720.345 505.307 723.341 508.621 723.501C518.836 723.995 530.117 714.326 537.813 708.478C541.065 706.007 548.027 701.484 550.458 699.322C561.183 689.787 594.048 661.206 595.502 647.788C596.462 645.895 599.214 641.796 600.325 640.084C613.537 619.722 616.177 602.354 607.129 579.726C605.578 575.847 605.328 569.213 602.806 565.341C602.206 564.42 601.434 562.56 601.829 561.415L603.075 560.854L604.082 561.367C606.989 565.982 607.173 575.007 608.124 580.3C608.896 584.593 610.034 587.127 611.157 591.14L611.906 591.23L612.87 590.398C615.544 583.885 612.485 579.175 611.695 573.523C609.586 558.424 596.799 555.687 589.426 546.115Z"></path><path fill="#D1CFD5" d="M548.931 693.1C561.038 681.948 573.641 671.578 584.09 658.926C587.44 654.869 591.547 651.263 595.502 647.788C594.048 661.206 561.183 689.787 550.458 699.322C548.027 701.484 541.065 706.007 537.813 708.478C530.117 714.326 518.836 723.995 508.621 723.501C505.307 723.341 502.201 720.345 499.343 719.244C484.869 713.669 474.232 704.911 462.642 694.973C459.669 692.423 453.632 686.687 450.901 684.839C447.781 682.367 444.994 678.972 442.167 676.123C437.766 671.685 432.66 668.563 432.31 661.758C441.341 671.74 447.957 677.87 458.2 686.429C467.851 694.495 473.339 700.801 484.269 707.485C500.135 717.186 507.615 729.318 525.772 713.208C534.318 705.626 541.235 703.71 548.931 693.1Z"></path><path fill="#E5E4E8" d="M432.31 661.758L431.89 659.68C434.706 660.571 435.696 663.103 437.24 662.737L437.642 661.461C440.698 664.049 442.777 667.437 445.511 670.315C449.323 674.328 453.82 678.335 457.984 681.997C463.723 687.044 470.06 692.955 476.072 697.523C482.655 702.526 489.869 706.565 496.284 711.84C497.682 712.99 498.3 714.099 499.203 715.64C499.922 716.869 500.648 717.416 502.042 717.841C505.081 718.767 514.435 718.943 517.072 717.044C519.955 714.967 521.902 711.443 524.733 709.366C527.721 707.174 530.742 708.668 532.921 704.556C533.856 702.793 546.772 694.195 548.931 693.1C541.235 703.71 534.318 705.626 525.772 713.208C507.615 729.318 500.135 717.186 484.269 707.485C473.339 700.801 467.851 694.495 458.2 686.429C447.957 677.87 441.341 671.74 432.31 661.758Z"></path><path fill="#6664D6" d="M459.916 573.157L460.404 573.115C476.048 571.89 485.26 582.837 494.488 593.849C502.01 602.824 509.605 611.583 521.883 601.898C524.861 599.548 528.783 594.561 531.251 591.456C542.558 577.226 561.392 565.489 578.221 578.93C584.276 583.897 589.116 595.116 589.162 603.255C589.285 624.97 573.825 643.663 559.605 658.642C543.258 675.109 532.057 684.829 512.605 697.71C509.576 696.096 506.635 694.323 503.793 692.399C476.988 674.352 416.009 622.364 441.232 584.459C445.731 577.698 451.989 574.51 459.916 573.157Z"></path><defs><linearGradient id="gradient_1" gradientUnits="userSpaceOnUse" x1="236.14163" y1="556.78638" x2="501.07959" y2="668.35461"><stop offset="0" stop-color="#B3AFCC"></stop><stop offset="1" stop-color="#DEDCEB"></stop></linearGradient></defs><path fill="url(#gradient_1)" d="M276.323 732.947C270.52 734.24 269.269 733.26 264.069 731.03C249.312 724.7 242.43 713.206 241.977 697.339C241.312 674.069 242.004 650.714 241.884 627.363L241.872 575.568C241.804 564.682 241.429 553.767 241.564 542.863C241.638 536.979 243.84 534.248 249.89 533.816C258.925 533.17 268.096 533.369 277.161 533.342L319.468 532.937L462.751 532.108C469.367 532.117 476.207 532.452 482.788 532.271C504.861 531.665 526.546 533.183 548.628 531.979C551.216 532.257 556.305 531.65 558.168 532.355L558.251 533.154C557.475 534.024 557.088 534.487 556.202 535.234C552.474 535.532 539.371 537.455 535.87 538.39C534.439 540.725 533.835 541.272 533.943 543.999L533.976 544.925L534.96 545.328C531.9 547.848 528.669 549.555 525.537 551.897C520.345 555.777 516.224 560.556 512.02 565.437L508.093 561.675L507.014 561.832C501.073 556.01 495.191 551.438 488.102 547.133C486.96 546.44 485.269 545.495 484.583 544.478C486.657 544.565 487.823 544.631 489.872 544.442C486.699 542.185 479.389 545.006 475.94 538.748L476.213 538.451C477.998 538.988 478.42 539.246 480.284 538.915L479.783 538.399C466.497 534.421 451.909 534.674 438.609 538.172C435.27 539.051 429.675 539.88 427.863 542.839L429.659 543.158L429.312 543.714L426.829 544.096L427.009 544.913C409.366 545.235 390.919 544.882 373.212 544.887L251.012 545.077L250.924 648.716L250.92 677.73C250.935 703.114 250.858 720.094 276.323 732.947Z"></path><defs><linearGradient id="gradient_2" gradientUnits="userSpaceOnUse" x1="511.1799" y1="543.77557" x2="509.59702" y2="563.34607"><stop offset="0" stop-color="#6A64C7"></stop><stop offset="1" stop-color="#9183E2"></stop></linearGradient></defs><path fill="url(#gradient_2)" d="M533.976 544.925L534.96 545.328C531.9 547.848 528.669 549.555 525.537 551.897C520.345 555.777 516.224 560.556 512.02 565.437L508.093 561.675C504.185 556.302 492.74 548.414 486.922 545.08L533.976 544.925Z"></path><path fill="#9592D6" d="M462.958 705.132C470.49 710.843 497.492 731.865 505.318 734.731C505.83 735.099 505.602 734.834 505.829 735.647C503.117 736.522 486.328 736.101 482.493 736.103L430.017 736.114L340.597 736.129C329.649 736.135 283.092 737.594 277.016 732.935C279.492 732.531 288.036 735.249 291.464 735.294C308.719 735.566 326.182 735.979 343.408 734.95C345.471 734.641 347.516 734.148 349.557 733.705C384.383 726.149 420.386 728.195 455.774 727.462C459.002 727.395 463.783 729.079 466.995 729.993C472.149 731.46 489.348 733.824 492.078 727.957C485.858 722.233 466.431 711.481 462.958 705.132Z"></path><defs><linearGradient id="gradient_3" gradientUnits="userSpaceOnUse" x1="509.8056" y1="424.06512" x2="512.74561" y2="518.09076"><stop offset="0" stop-color="#4E4EA4"></stop><stop offset="1" stop-color="#6864EF"></stop></linearGradient></defs><path fill="url(#gradient_3)" d="M241.868 496.128C242.544 484.207 241.451 472.47 241.194 459.859C240.948 447.78 248.224 436.02 256.264 427.438C262.048 421.264 275.21 418.091 283.294 417.496C291.482 416.894 300.686 417.272 309.345 417.434C318.689 417.545 328.033 417.579 337.377 417.535L457.501 417.772L657.788 418.022C679.093 418.147 700.42 417.531 721.741 417.974C735.902 418.267 750.595 416.859 761.201 428.305C759.633 428.375 758.135 426.983 756.224 426.022L755.918 426.706C758.887 438.099 758.294 437.169 766.457 445.658C768.11 447.377 770.507 451.584 770.203 454.644C771.809 460.17 773.986 469.519 772.957 475.315C773.672 484.323 773.098 501.243 773.033 511.004L680.951 511.066C666.551 511.06 648.425 510.529 634.278 511.102C630.615 511.842 615.746 511.587 611.06 511.583L562.281 511.542L355.059 511.557L286.828 511.561C282.429 511.559 253.014 511.073 251.432 512.263L251.23 514.121L250.275 514.646C246.043 514.464 236.948 509.364 239.312 504.294L241.082 503.959C242.21 501.765 240.475 498.431 241.868 496.128Z"></path><path fill="#BCB8D2" d="M241.868 496.128C242.544 484.207 241.451 472.47 241.194 459.859C240.948 447.78 248.224 436.02 256.264 427.438C262.048 421.264 275.21 418.091 283.294 417.496C291.482 416.894 300.686 417.272 309.345 417.434C318.689 417.545 328.033 417.579 337.377 417.535L457.501 417.772L657.788 418.022C679.093 418.147 700.42 417.531 721.741 417.974C735.902 418.267 750.595 416.859 761.201 428.305C759.633 428.375 758.135 426.983 756.224 426.022L755.918 426.706C758.887 438.099 758.294 437.169 766.457 445.658C768.11 447.377 770.507 451.584 770.203 454.644C753.757 423.454 730.938 429.018 700.488 429.015L630.301 429.109C620.011 428.69 606.681 429.053 596.208 429.052L528.813 429.067C481.224 429.078 431.545 428.247 384.142 429.082L318.995 429.04C311.021 429.031 290.237 428.411 283.234 429.969C275.636 431.688 268.667 435.49 263.108 440.949C244.78 459.01 252.724 486.131 250.969 509.082C242.114 508.435 241.732 503.266 241.868 496.128Z"></path><path fill="#4B47A8" d="M250.969 509.082C252.724 486.131 244.78 459.01 263.108 440.949C268.667 435.49 275.636 431.688 283.234 429.969C290.237 428.411 311.021 429.031 318.995 429.04L384.142 429.082C379.912 432.418 329.207 427.881 319.041 430.733C311.141 432.949 308.398 435.949 302.643 441.278C301.764 442.092 300.815 443.414 299.757 443.972C298.632 444.565 297.088 444.692 296.043 445.415C294.633 446.392 293.603 447.85 292.201 448.873C287.045 452.634 279.865 455.248 275.977 460.41C271.996 465.693 267.703 478.117 264.428 484.73C263.146 487.319 261.623 490.476 259.847 492.745C257.805 495.353 252.371 498.183 251.74 501.195C251.175 503.89 251.97 507.512 252.244 510.255C258.601 510.243 292.736 509.71 297.268 510.925C291.766 510.951 253.658 511.541 251.357 510.639L250.969 509.082Z"></path><path fill="#4B47A8" d="M630.301 429.109L700.488 429.015C730.938 429.018 753.757 423.454 770.203 454.644C771.809 460.17 773.986 469.519 772.957 475.315C771.92 474.343 771.714 461.581 770.48 458.078C766.469 446.689 757.016 435.749 745.051 432.536C744.902 432.496 736.097 435.724 733.823 435.706C726.024 435.643 718.002 436.223 710.212 435.792C700.946 434.337 694.124 431.527 684.178 431.258C677.277 431.071 670.413 430.992 663.52 430.832C658.052 430.705 652.738 430.079 646.946 429.992C638.81 429.87 629.34 430.581 621.45 429.836C624.498 429.777 627.339 429.892 630.301 429.109Z"></path><path fill="#E5E4E8" d="M634.278 511.102C630.615 511.842 615.746 511.587 611.06 511.583L562.281 511.542L355.059 511.557L286.828 511.561C282.429 511.559 253.014 511.073 251.432 512.263L251.23 514.121L250.275 514.646C246.043 514.464 236.948 509.364 239.312 504.294L241.082 503.959C242.21 501.765 240.475 498.431 241.868 496.128C241.732 503.266 242.114 508.435 250.969 509.082L251.357 510.639C253.658 511.541 291.766 510.951 297.268 510.925C325.413 511.767 357.358 511.02 385.749 511.011L552.727 511.029L606.167 511.019C615.088 511.019 625.545 510.736 634.278 511.102Z"></path><path fill="#FCFCFD" d="M200.618 379.429C198.71 368.645 202.6 362.317 212.529 358.41C224.466 353.712 236.67 349.798 248.807 345.648L304.879 325.95L496.958 258.001C515.176 251.513 518.158 254.842 535.676 261.12L560.277 269.861L660.419 305.188L759.582 339.992L794.049 352.004C799.218 353.82 807.722 356.55 812.324 358.732C833.757 365.825 824.251 398.48 800.563 390.949C788.551 387.13 776.665 382.736 764.752 378.614L680.962 349.137L562.035 307.352C546.519 301.785 530.361 296.639 515.149 290.49L512.664 289.474C505.301 291.376 493.354 296.074 485.875 298.774L439.843 315.212L286.062 369.071L243.406 384.099C237.443 386.213 231.574 388.489 225.568 390.486C215.242 393.919 203.545 391.131 200.618 379.429Z"></path><path fill="#BCB8D2" d="M208.415 384.032L208.641 383.639L207.775 383.062L207.797 382.335C208.916 381.412 208.623 381.784 209.406 380.597L208.207 379.803C210.905 379.679 213.875 380.667 216.018 379.855C244.602 368.702 273.42 358.157 302.452 348.228C309.569 345.819 317.332 344.02 324.407 341.691C328.706 340.275 333.694 337.222 338.496 335.708C352.43 331.316 366.819 326.618 380.574 321.709L454.29 295.444C469.081 290.049 483.616 283.914 498.663 279.161C512.703 274.727 520.366 280.094 532.871 284.028C551.406 289.859 569.283 296.137 587.409 303.127C599.663 307.852 612.555 311.14 625.004 315.461L721.147 349.523C747.889 358.851 774.287 368.872 801.41 377.087C810.42 379.816 809.743 372.076 811.816 367.092C813.385 367.94 814.284 370.004 814.579 371.696C815.628 369.085 818.012 365.874 818.306 363.941C815.945 361.119 815.182 361.48 812.972 359.364L812.324 358.732C833.757 365.825 824.251 398.48 800.563 390.949C788.551 387.13 776.665 382.736 764.752 378.614L680.962 349.137L562.035 307.352C546.519 301.785 530.361 296.639 515.149 290.49L512.664 289.474C505.301 291.376 493.354 296.074 485.875 298.774L439.843 315.212L286.062 369.071L243.406 384.099C237.443 386.213 231.574 388.489 225.568 390.486C215.242 393.919 203.545 391.131 200.618 379.429L201.266 380.109C202.965 381.924 202.954 383.379 204.909 384.229C206.22 384.221 207.103 384.251 208.415 384.032Z"></path><path fill="#D1CFD5" d="M208.415 384.032L208.641 383.639L207.775 383.062L207.797 382.335C208.916 381.412 208.623 381.784 209.406 380.597L208.207 379.803C210.905 379.679 213.875 380.667 216.018 379.855C244.602 368.702 273.42 358.157 302.452 348.228C309.569 345.819 317.332 344.02 324.407 341.691C328.706 340.275 333.694 337.222 338.496 335.708C352.43 331.316 366.819 326.618 380.574 321.709L454.29 295.444C469.081 290.049 483.616 283.914 498.663 279.161C512.703 274.727 520.366 280.094 532.871 284.028C551.406 289.859 569.283 296.137 587.409 303.127C599.663 307.852 612.555 311.14 625.004 315.461L721.147 349.523C747.889 358.851 774.287 368.872 801.41 377.087C810.42 379.816 809.743 372.076 811.816 367.092C813.385 367.94 814.284 370.004 814.579 371.696C818.071 380.506 806.865 384.776 800.814 382.478C789.6 378.144 778.301 374.185 766.951 370.208C763.217 368.977 759.012 366.282 755.298 365.333C737.125 360.686 719.852 353.221 701.953 347.857C688.068 343.696 674.977 338.388 661.461 333.362C647.548 328.188 632.934 324.397 619.298 318.23C614.388 316.089 605.148 314.79 601.483 313.078C603.295 312.967 603.513 313.032 605.246 313.279L605.81 312.861L605.528 312.09C599.415 310.488 589.597 310.522 584.243 306.204C584.926 305.569 585.543 305.746 586.726 305.633C586.46 304.478 584.782 303.738 583.557 302.924C580.577 300.941 578.131 302.037 574.892 302.894C559.171 296.743 542.59 292.225 526.865 286.052C524.839 285.257 522.86 284.482 520.749 283.931C517.389 283.071 513.943 282.587 510.475 282.491C494.301 282.019 472.576 294.426 456.894 299.267C416.393 311.771 377.08 328.18 336.769 341.067C335.535 341.462 331.485 340.512 330.024 340.215C328.36 341.289 328.42 341.368 327.129 342.666C324.703 345.106 319.148 347.064 315.887 348.187C289.776 357.181 263.843 366.325 237.994 376.047C229.877 379.1 222.049 383.215 213.875 385.51C212.938 385.744 209.553 384.912 208.598 384.568L208.415 384.032Z"></path></svg>